<?xml version="1.0" encoding="utf-8"?>
<!-- Generator: Adobe Illustrator 16.0.0, SVG Export Plug-In . SVG Version: 6.00 Build 0)  -->
<!DOCTYPE svg PUBLIC "-//W3C//DTD SVG 1.1//EN" "http://www.w3.org/Graphics/SVG/1.1/DTD/svg11.dtd">
<svg version="1.1" xmlns="http://www.w3.org/2000/svg" xmlns:xlink="http://www.w3.org/1999/xlink" x="0px" y="0px"
	 width="841.89px" height="595.28px" viewBox="0 0 841.89 595.28" enable-background="new 0 0 841.89 595.28" xml:space="preserve">
<g id="Layer_1">
	<rect fill="#FFFFFF" stroke="#000000" stroke-width="5" stroke-miterlimit="10" width="841.89" height="112.323"/>
	
		<rect x="135.461" y="112.323" fill="#FFFFFF" stroke="#000000" stroke-width="5" stroke-miterlimit="10" width="570.968" height="438.709"/>
	<rect y="551.032" fill="#FFFFFF" stroke="#000000" stroke-width="5" stroke-miterlimit="10" width="841.89" height="44.248"/>
	<text transform="matrix(1 0 0 1 22.3867 22.6455)" font-family="'MyriadPro-Regular'" font-size="12">HEADER</text>
	<text transform="matrix(1 0 0 1 241.0967 572.9678)" font-family="'MyriadPro-Regular'" font-size="12">FOOTER</text>
	<text transform="matrix(1 0 0 1 153.355 534.2578)" font-family="'MyriadPro-Regular'" font-size="12">CONTENT</text>
	<rect x="275.784" fill="#FFFFFF" stroke="#000000" stroke-miterlimit="10" width="290.322" height="78.129"/>
	
		<rect x="0.452" y="78.129" fill="#FFFFFF" stroke="#000000" stroke-width="3" stroke-miterlimit="10" width="841.438" height="34.194"/>
	<text transform="matrix(1 0 0 1 394.645 36.1934)" font-family="'MyriadPro-Regular'" font-size="12">LOGO</text>
	<text transform="matrix(1 0 0 1 22.3867 100.0645)" font-family="'MyriadPro-Regular'" font-size="12">NAVBAR</text>
	<rect x="135.461" y="78.129" fill="#FFFFFF" stroke="#000000" stroke-miterlimit="10" width="114.193" height="34.194"/>
	<rect x="249.654" y="78.129" fill="#FFFFFF" stroke="#000000" stroke-miterlimit="10" width="114.194" height="34.194"/>
	<rect x="363.848" y="78.129" fill="#FFFFFF" stroke="#000000" stroke-miterlimit="10" width="114.194" height="34.194"/>
	<rect x="478.042" y="78.129" fill="#FFFFFF" stroke="#000000" stroke-miterlimit="10" width="114.193" height="34.194"/>
	<rect x="592.235" y="78.129" fill="#FFFFFF" stroke="#000000" stroke-miterlimit="10" width="114.193" height="34.194"/>
	<text transform="matrix(1 0 0 1 148.1938 98.1289)" font-family="'MyriadPro-Regular'" font-size="12">PUPPET INFO</text>
	<text transform="matrix(1 0 0 1 265.6128 100.0645)" font-family="'MyriadPro-Regular'" font-size="12">BROWSE</text>
	<text transform="matrix(1 0 0 1 377.8706 100.0645)" font-family="'MyriadPro-Regular'" font-size="12">SUPPORT</text>
	<text transform="matrix(1 0 0 1 497.2256 100.0645)" font-family="'MyriadPro-Regular'" font-size="12">FAQ</text>
	<text transform="matrix(1 0 0 1 609.4844 98.1289)" font-family="'MyriadPro-Regular'" font-size="12">ABOUT</text>
	<polygon points="241.097,88.33 233.134,102.122 225.171,88.33 	"/>
	<rect x="135.461" y="112.323" fill="#FFFFFF" stroke="#000000" stroke-miterlimit="10" width="125.806" height="22.097"/>
	<rect x="135.461" y="134.419" fill="#FFFFFF" stroke="#000000" stroke-miterlimit="10" width="125.806" height="22.097"/>
	<rect x="135.461" y="156.516" fill="#FFFFFF" stroke="#000000" stroke-miterlimit="10" width="125.806" height="22.097"/>
	<rect x="135.461" y="178.613" fill="#FFFFFF" stroke="#000000" stroke-miterlimit="10" width="125.806" height="22.097"/>
	<text transform="matrix(1 0 0 1 148.1938 127.8066)" font-family="'MyriadPro-Regular'" font-size="12">PUPPET TYPE 1</text>
	<text transform="matrix(1 0 0 1 148.1938 150.3867)" font-family="'MyriadPro-Regular'" font-size="12">PUPPET TYPE 2</text>
	<text transform="matrix(1 0 0 1 148.1938 170.3867)" font-family="'MyriadPro-Regular'" font-size="12">PUPPET TYPE 3</text>
	<text transform="matrix(1 0 0 1 148.1938 192.9673)" font-family="'MyriadPro-Regular'" font-size="12">PUPPET TYPE 4</text>
</g>
<g id="Layer_2">
</g>
</svg>
